<svg xmlns="http://www.w3.org/2000/svg" xmlns:xlink="http://www.w3.org/1999/xlink" width="500" zoomAndPan="magnify" viewBox="0 0 375 374.999991" height="500" preserveAspectRatio="xMidYMid meet" version="1.0"><defs><clipPath id="25b8150a6f"><path d="M 38 226 L 221 226 L 221 337.5 L 38 337.5 Z M 38 226 " clip-rule="nonzero"/></clipPath></defs><path fill="#b1e7fc" d="M 21.113281 46.789062 C 19.734375 31.699219 29.816406 16.320312 44.207031 11.5625 C 58.59375 6.800781 75.863281 13.132812 83.761719 26.0625 C 87.441406 12.507812 100.371094 2.464844 114.367188 1.226562 C 128.363281 -0.0078125 142.714844 8.21875 148.710938 20.917969 C 160.082031 15.535156 171.28125 22.449219 177.054688 33.625 C 182.832031 44.800781 178.789062 59.910156 168.460938 67.097656 C 158.136719 74.285156 142.917969 73.035156 133.578125 64.613281 C 139.457031 74.625 128.445312 91.042969 118.335938 96.757812 C 108.226562 102.472656 95.109375 100.800781 85.144531 94.835938 C 75.179688 88.871094 67.949219 79.21875 62.273438 69.085938 C 56.960938 77.28125 45.933594 85.535156 36.347656 87.429688 C 26.765625 89.320312 15.890625 85.695312 10.625 77.46875 C 5.359375 69.242188 12.773438 51.875 21.113281 46.789062 Z M 21.113281 46.789062 " fill-opacity="1" fill-rule="nonzero"/><path fill="#d9f6ff" d="M 241.90625 227.492188 C 239.605469 214.21875 228.957031 202.769531 215.882812 199.511719 C 202.804688 196.257812 188.027344 201.371094 179.765625 212.015625 C 175.046875 208.640625 167.84375 208.808594 162.351562 210.675781 C 156.859375 212.546875 152.386719 217.171875 150.707031 222.722656 C 144.171875 221.207031 137.042969 225.652344 133.441406 231.3125 C 129.839844 236.96875 129.503906 244.328125 131.628906 250.691406 C 133.503906 256.308594 137.3125 261.378906 142.53125 264.179688 C 147.75 266.976562 154.394531 267.277344 159.5625 264.390625 C 159.839844 273.785156 166.398438 282.699219 175.550781 284.859375 C 184.703125 287.019531 195.027344 282.378906 199.484375 274.101562 C 204.703125 278.316406 211.835938 283.082031 218.546875 283.035156 C 222.839844 283.007812 227.25 281.960938 230.640625 279.332031 C 234.035156 276.707031 236.230469 272.320312 235.519531 268.085938 C 243.109375 269.355469 253.292969 267.175781 258.625 261.628906 C 263.957031 256.082031 265.984375 247.414062 263.152344 240.261719 C 260.320312 233.109375 249.546875 226.582031 241.90625 227.492188 Z M 241.90625 227.492188 " fill-opacity="1" fill-rule="nonzero"/><path fill="#fdce30" d="M 99.1875 68.132812 C 91.863281 73.101562 85.660156 79.773438 81.394531 88 C 74.808594 100.699219 73.875 115.613281 78.722656 129.082031 C 90.777344 162.558594 136.554688 179.511719 165.425781 156.078125 C 191.53125 134.890625 196.015625 90.167969 167.839844 68.886719 C 147.742188 53.703125 119.257812 54.511719 99.1875 68.132812 Z M 99.1875 68.132812 " fill-opacity="1" fill-rule="nonzero"/><path fill="#f79b31" d="M 135.871094 43.476562 C 136.894531 36.035156 137.90625 28.523438 138.929688 21.082031 C 133.46875 21.769531 128.601562 21.726562 123.101562 21.714844 C 124.449219 29.09375 125.796875 36.472656 127.148438 43.851562 C 129.632812 43.523438 133.371094 43.296875 135.871094 43.480469 Z M 135.871094 43.476562 " fill-opacity="1" fill-rule="nonzero"/><path fill="#f79b31" d="M 139.3125 201.125 C 137.90625 194.300781 136.9375 187.617188 136.148438 180.695312 L 127.492188 180.929688 C 127.558594 187.152344 126.070312 194.988281 124.980469 201.117188 C 130.386719 201.097656 133.933594 200.589844 139.3125 201.125 Z M 139.3125 201.125 " fill-opacity="1" fill-rule="nonzero"/><path fill="#f79b31" d="M 198.855469 115.765625 C 206.300781 116.789062 213.8125 117.800781 221.257812 118.820312 C 220.574219 113.363281 220.613281 108.5 220.625 103 C 213.246094 104.347656 205.863281 105.695312 198.480469 107.042969 C 198.8125 109.53125 199.035156 113.265625 198.855469 115.765625 Z M 198.855469 115.765625 " fill-opacity="1" fill-rule="nonzero"/><path fill="#f79b31" d="M 41.152344 119.207031 C 47.976562 117.796875 54.664062 116.832031 61.589844 116.042969 C 61.511719 113.15625 61.433594 110.273438 61.355469 107.386719 C 55.128906 107.453125 47.289062 105.96875 41.160156 104.878906 C 41.179688 110.28125 41.6875 113.828125 41.152344 119.207031 Z M 41.152344 119.207031 " fill-opacity="1" fill-rule="nonzero"/><path fill="#f79b31" d="M 101.621094 50.109375 C 98.804688 43.144531 95.949219 36.125 93.132812 29.160156 C 88.738281 32.46875 84.496094 34.851562 79.714844 37.574219 C 84.554688 43.308594 89.394531 49.039062 94.234375 54.769531 C 96.230469 53.25 99.359375 51.195312 101.621094 50.109375 Z M 101.621094 50.109375 " fill-opacity="1" fill-rule="nonzero"/><path fill="#f79b31" d="M 183.015625 185.179688 C 178.398438 179.960938 174.234375 174.640625 170.105469 169.03125 L 162.714844 173.535156 C 165.867188 178.902344 168.472656 186.4375 170.574219 192.296875 C 175.253906 189.59375 178.082031 187.390625 183.015625 185.179688 Z M 183.015625 185.179688 " fill-opacity="1" fill-rule="nonzero"/><path fill="#f79b31" d="M 192.21875 81.527344 C 199.1875 78.710938 206.210938 75.855469 213.179688 73.042969 C 209.867188 68.648438 207.484375 64.40625 204.757812 59.628906 C 199.027344 64.46875 193.292969 69.304688 187.558594 74.144531 C 189.078125 76.136719 191.132812 79.265625 192.21875 81.527344 Z M 192.21875 81.527344 " fill-opacity="1" fill-rule="nonzero"/><path fill="#f79b31" d="M 57.105469 162.890625 C 62.324219 158.277344 67.644531 154.117188 73.257812 149.988281 C 71.757812 147.527344 70.253906 145.0625 68.75 142.597656 C 63.382812 145.75 55.84375 148.355469 49.984375 150.457031 C 52.6875 155.136719 54.890625 157.960938 57.105469 162.890625 Z M 57.105469 162.890625 " fill-opacity="1" fill-rule="nonzero"/><path fill="#f79b31" d="M 161.542969 50.109375 C 164.359375 43.144531 167.214844 36.125 170.03125 29.160156 C 174.425781 32.46875 178.667969 34.851562 183.449219 37.574219 C 178.605469 43.308594 173.765625 49.039062 168.925781 54.769531 C 166.933594 53.25 163.800781 51.195312 161.542969 50.109375 Z M 161.542969 50.109375 " fill-opacity="1" fill-rule="nonzero"/><path fill="#f79b31" d="M 80.148438 185.179688 C 84.761719 179.960938 88.925781 174.640625 93.054688 169.03125 C 95.519531 170.53125 97.984375 172.035156 100.449219 173.535156 C 97.296875 178.902344 94.6875 186.4375 92.589844 192.296875 C 87.90625 189.59375 85.082031 187.390625 80.148438 185.179688 Z M 80.148438 185.179688 " fill-opacity="1" fill-rule="nonzero"/><path fill="#f79b31" d="M 70.941406 81.527344 C 63.972656 78.710938 56.953125 75.855469 49.984375 73.042969 C 53.292969 68.648438 55.679688 64.40625 58.402344 59.628906 C 64.136719 64.46875 69.871094 69.304688 75.601562 74.144531 C 74.082031 76.136719 72.027344 79.265625 70.941406 81.527344 Z M 70.941406 81.527344 " fill-opacity="1" fill-rule="nonzero"/><path fill="#f79b31" d="M 206.058594 162.890625 C 200.839844 158.277344 195.515625 154.117188 189.902344 149.988281 C 191.40625 147.527344 192.90625 145.0625 194.410156 142.597656 C 199.777344 145.75 207.316406 148.355469 213.179688 150.457031 C 210.476562 155.136719 208.269531 157.960938 206.058594 162.890625 Z M 206.058594 162.890625 " fill-opacity="1" fill-rule="nonzero"/><path fill="#e73844" d="M 125.921875 103.390625 C 127.902344 103.886719 129.617188 105.183594 131.617188 105.597656 C 134.140625 106.125 136.714844 105.167969 139.113281 104.230469 C 141.09375 103.457031 143.273438 102.675781 145.285156 103.351562 C 147.121094 103.964844 148.414062 105.746094 148.765625 107.648438 C 149.226562 110.136719 148.210938 112.75 146.519531 114.636719 C 144.828125 116.523438 142.523438 117.765625 140.152344 118.652344 C 135.714844 120.316406 130.71875 120.839844 126.238281 119.3125 C 122.148438 117.917969 118.097656 114.359375 117.191406 109.964844 C 116.285156 105.589844 122.195312 102.464844 125.921875 103.390625 Z M 125.921875 103.390625 " fill-opacity="1" fill-rule="nonzero"/><path fill="#ff7a7e" d="M 120.742188 115.96875 C 122.339844 117.480469 124.28125 118.648438 126.238281 119.3125 C 130.71875 120.839844 135.714844 120.316406 140.152344 118.652344 C 142.414062 117.804688 144.601562 116.632812 146.269531 114.894531 C 142.679688 112.9375 138.632812 111.820312 134.539062 111.800781 C 129.660156 111.773438 124.824219 113.300781 120.742188 115.96875 Z M 120.742188 115.96875 " fill-opacity="1" fill-rule="nonzero"/><path fill="#212121" d="M 165.214844 98.066406 C 164.066406 98.066406 163.03125 97.273438 162.765625 96.109375 C 162.199219 93.609375 159.652344 91.542969 157.09375 91.503906 C 157.066406 91.503906 157.039062 91.503906 157.015625 91.503906 C 154.476562 91.503906 151.914062 93.472656 151.273438 95.925781 C 150.925781 97.269531 149.550781 98.078125 148.210938 97.726562 C 146.867188 97.378906 146.058594 96.007812 146.410156 94.664062 C 147.628906 89.972656 152.167969 86.480469 157.011719 86.480469 C 157.0625 86.480469 157.117188 86.480469 157.171875 86.480469 C 162.070312 86.558594 166.582031 90.21875 167.667969 95 C 167.972656 96.351562 167.125 97.695312 165.773438 98.003906 C 165.585938 98.046875 165.398438 98.066406 165.214844 98.066406 Z M 165.214844 98.066406 " fill-opacity="1" fill-rule="nonzero"/><path fill="#212121" d="M 118.296875 98.066406 C 117.148438 98.066406 116.109375 97.273438 115.847656 96.109375 C 115.28125 93.609375 112.734375 91.542969 110.171875 91.503906 C 110.148438 91.503906 110.121094 91.503906 110.097656 91.503906 C 107.558594 91.503906 104.996094 93.472656 104.355469 95.925781 C 104.007812 97.269531 102.632812 98.078125 101.289062 97.726562 C 99.949219 97.378906 99.140625 96.007812 99.492188 94.664062 C 100.722656 89.921875 105.316406 86.402344 110.25 86.480469 C 115.152344 86.558594 119.664062 90.21875 120.75 95 C 121.054688 96.351562 120.207031 97.695312 118.851562 98.003906 C 118.664062 98.046875 118.480469 98.066406 118.296875 98.066406 Z M 118.296875 98.066406 " fill-opacity="1" fill-rule="nonzero"/><path fill="#b1e7fc" d="M 268.3125 167.800781 C 279.25 177.667969 295.316406 181.507812 309.535156 177.652344 C 313.527344 176.566406 317.460938 174.859375 320.402344 171.953125 C 323.34375 169.042969 326.21875 163.964844 325.425781 159.90625 C 339.171875 163.375 354.8125 157.082031 362.320312 145.0625 C 369.828125 133.042969 368.621094 116.230469 359.46875 105.410156 C 350.320312 94.585938 334.621094 89.601562 321.511719 94.996094 C 322.398438 85.484375 314.742188 77.242188 306.503906 72.394531 C 292.90625 64.394531 276.152344 61.941406 260.832031 65.707031 C 245.511719 69.472656 234.867188 80.300781 226.53125 93.691406 C 219.679688 91.003906 212.269531 89.355469 204.953125 90.160156 C 197.632812 90.96875 190.417969 94.457031 186.160156 100.460938 C 181.902344 106.464844 182.410156 113.542969 186.5 119.664062 C 174.175781 115.195312 159.359375 118.648438 150.28125 128.109375 C 146.417969 132.136719 143.464844 137.765625 144.820312 143.179688 C 146.289062 149.03125 152.167969 152.589844 157.792969 154.757812 C 168.394531 158.84375 180.019531 160.25 191.289062 158.8125 C 198.984375 171.089844 208.132812 185.316406 222.527344 187.03125 C 236.917969 188.746094 257.941406 177.925781 268.308594 167.800781 Z M 268.3125 167.800781 " fill-opacity="1" fill-rule="nonzero"/><path fill="#d9f6ff" d="M 285.832031 166.449219 C 287.507812 156.78125 295.261719 148.445312 304.785156 146.074219 C 314.308594 143.703125 325.066406 147.425781 331.085938 155.179688 C 334.519531 152.71875 339.765625 152.84375 343.765625 154.203125 C 347.765625 155.566406 351.023438 158.933594 352.246094 162.976562 C 357.003906 161.875 362.195312 165.109375 364.820312 169.230469 C 367.441406 173.351562 367.6875 178.710938 366.140625 183.34375 C 364.773438 187.433594 362 191.128906 358.199219 193.167969 C 354.398438 195.203125 349.5625 195.421875 345.796875 193.320312 C 345.59375 200.160156 340.816406 206.652344 334.152344 208.226562 C 327.488281 209.800781 319.972656 206.421875 316.726562 200.390625 C 312.925781 203.460938 307.726562 206.933594 302.84375 206.898438 C 299.714844 206.878906 296.503906 206.117188 294.035156 204.203125 C 291.5625 202.289062 289.964844 199.09375 290.480469 196.011719 C 284.957031 196.9375 277.539062 195.351562 273.65625 191.308594 C 269.773438 187.269531 268.296875 180.957031 270.359375 175.75 C 272.421875 170.539062 280.265625 165.785156 285.832031 166.449219 Z M 285.832031 166.449219 " fill-opacity="1" fill-rule="nonzero"/><g clip-path="url(#25b8150a6f)"><path fill="#b1e7fc" d="M 106.355469 306.816406 C 111.777344 323.902344 128.75 336.636719 146.675781 337.066406 C 164.601562 337.5 184.3125 322.878906 190.546875 306.074219 C 202.117188 308.582031 214.988281 301.355469 218.875 290.175781 C 222.757812 278.996094 217.136719 265.351562 206.503906 260.148438 C 195.871094 254.945312 177.925781 255.839844 171.476562 265.761719 C 168.507812 245.761719 150.871094 228.890625 130.753906 226.804688 C 110.636719 224.71875 88.84375 236.804688 81.832031 255.769531 C 73.542969 246.402344 57.796875 244.902344 47.882812 252.539062 C 37.972656 260.171875 35.410156 275.773438 42.355469 286.175781 C 47.050781 293.207031 55.398438 298.085938 63.710938 299.640625 C 64.804688 308.289062 69.28125 321.023438 77.613281 323.617188 C 85.941406 326.210938 100.542969 313.316406 106.355469 306.816406 Z M 106.355469 306.816406 " fill-opacity="1" fill-rule="nonzero"/></g><path fill="#d9f6ff" d="M 16.109375 202.238281 C 12.921875 201.652344 10.324219 198.710938 10.136719 195.476562 C 9.949219 192.242188 12.1875 189.023438 15.289062 188.074219 C 18.386719 187.121094 22.046875 188.53125 23.707031 191.316406 C 23.816406 186.496094 28.835938 182.316406 33.660156 182.414062 C 38.480469 182.515625 42.78125 186.980469 42.695312 191.804688 C 44.375 189.203125 46.652344 186.933594 49.472656 185.667969 C 53.4375 183.890625 58.308594 183.867188 61.957031 186.21875 C 65.609375 188.570312 67.621094 193.476562 66.070312 197.53125 C 64.519531 201.582031 59.144531 203.867188 55.394531 201.679688 C 57.5625 205.03125 55.273438 210.035156 52.222656 212.613281 C 49.171875 215.191406 44.535156 215.476562 40.960938 213.699219 C 37.386719 211.921875 34.898438 208.320312 34.003906 204.429688 C 32.238281 206.683594 30.132812 208.542969 27.667969 210.003906 C 25.203125 211.464844 22.011719 212.011719 19.460938 210.707031 C 16.910156 209.402344 14.609375 204.683594 16.109375 202.238281 Z M 16.109375 202.238281 " fill-opacity="1" fill-rule="nonzero"/><path fill="#d9f6ff" d="M 350.191406 313.796875 C 355.597656 312.804688 360.003906 307.816406 360.320312 302.328125 C 360.640625 296.84375 356.839844 291.378906 351.582031 289.769531 C 346.324219 288.15625 340.117188 290.546875 337.300781 295.269531 C 337.113281 287.09375 328.597656 280 320.417969 280.167969 C 312.234375 280.335938 304.9375 287.917969 305.085938 296.09375 C 302.238281 291.6875 298.378906 287.832031 293.585938 285.6875 C 286.867188 282.675781 278.601562 282.632812 272.410156 286.621094 C 266.21875 290.609375 262.804688 298.929688 265.433594 305.808594 C 268.066406 312.6875 277.183594 316.5625 283.542969 312.851562 C 279.863281 318.535156 283.75 327.027344 288.925781 331.398438 C 294.097656 335.769531 301.964844 336.257812 308.027344 333.242188 C 314.09375 330.226562 318.316406 324.117188 319.828125 317.515625 C 322.828125 321.339844 326.398438 324.492188 330.578125 326.96875 C 334.757812 329.449219 340.171875 330.375 344.496094 328.160156 C 348.824219 325.949219 352.726562 317.941406 350.191406 313.800781 Z M 350.191406 313.796875 " fill-opacity="1" fill-rule="nonzero"/></svg>